<svg width="32" height="32" viewBox="0 0 32 32" fill="none" xmlns="http://www.w3.org/2000/svg">
  <defs>
    <linearGradient id="gradient" x1="0%" y1="0%" x2="100%" y2="100%">
      <stop offset="0%" style="stop-color:#3B82F6;stop-opacity:1" />
      <stop offset="100%" style="stop-color:#8B5CF6;stop-opacity:1" />
    </linearGradient>
  </defs>
  
  <!-- Background circle -->
  <circle cx="16" cy="16" r="14" fill="url(#gradient)" />
  
  <!-- Trophy icon -->
  <path d="M12 6V4C12 3.45 12.45 3 13 3H19C19.55 3 20 3.45 20 4V6H22C23.1 6 24 6.9 24 8V10C24 12.21 22.21 14 20 14H19.83C19.42 16.17 17.51 17.8 15.2 17.97V20H17C17.55 20 18 20.45 18 21S17.55 22 17 22H15C14.45 22 14 21.55 14 21S14.45 20 15 20H16.8V17.97C14.49 17.8 12.58 16.17 12.17 14H12C9.79 14 8 12.21 8 10V8C8 6.9 8.9 6 10 6H12ZM10 8V10C10 11.1 10.9 12 12 12H12.17C12.58 9.83 14.49 8.2 16.8 8.03V8H10ZM20 8V8.03C22.31 8.2 24.22 9.83 24.63 12H24C25.1 12 26 11.1 26 10V8H20Z" fill="white"/>
  
  <!-- Star accent -->
  <circle cx="24" cy="8" r="3" fill="#FCD34D"/>
  <path d="M24 6.5L24.5 7.5L25.5 8L24.5 8.5L24 9.5L23.5 8.5L22.5 8L23.5 7.5L24 6.5Z" fill="white"/>
</svg>